<svg width="23" height="23" viewBox="0 0 24 24" fill="none" xmlns="http://www.w3.org/2000/svg">
  <path stroke="grey" stroke-width="1.5" stroke-linecap="round" stroke-linejoin="round" d="M6.24998 6.97961H22L20.3125 16.6073H7.93748L6.24998 6.97961Z"/>
  <path stroke="grey" stroke-width="1.5" stroke-linecap="round" stroke-linejoin="round" d="M6.24996 6.91048L4.63874 1H1"/>
  <path fill="grey" stroke="${color}" stroke-width="1.5" stroke-linecap="round" stroke-linejoin="round" d="M8.23901 22.0001C8.57357 22.0001 8.84478 21.7165 8.84478 21.3668C8.84478 21.017 8.57357 20.7335 8.23901 20.7335C7.90445 20.7335 7.63324 21.017 7.63324 21.3668C7.63324 21.7165 7.90445 22.0001 8.23901 22.0001Z"/>
  <path fill="grey" stroke="${color}" stroke-width="1.5" stroke-linecap="round" stroke-linejoin="round" d="M20.0514 22.0001C20.386 22.0001 20.6572 21.7165 20.6572 21.3668C20.6572 21.017 20.386 20.7335 20.0514 20.7335C19.7169 20.7335 19.4456 21.017 19.4456 21.3668C19.4456 21.7165 19.7169 22.0001 20.0514 22.0001Z"/>
</svg>